<?xml version="1.0" encoding="utf-8"?>
<!-- Generator: Adobe Illustrator 15.0.0, SVG Export Plug-In . SVG Version: 6.00 Build 0)  -->
<svg version="1.2" baseProfile="tiny" id="Layer_1" xmlns="http://www.w3.org/2000/svg" xmlns:xlink="http://www.w3.org/1999/xlink"
	 x="0px" y="0px" width="253px" height="62px" viewBox="0 0 253 62" xml:space="preserve">
<g id="_x23_c50124ff">
	<path fill="#009444" stroke="#010101" stroke-width="0.5" stroke-miterlimit="10" d="M12.886,10.832
		C25.21-0.924,46.335-1.463,59.551,9.138c7.048,5.531,10.895,14.821,9.701,23.719c-1.087,9.358-7.088,17.582-14.742,22.81
		c3.906,0.156,7.811,0.137,11.727,0.058c1.536-1.918,2.427-5.482,5.628-4.748c-1.664,3.212-3.328,6.432-5.081,9.595
		c-7.91-0.138-15.829,0.204-23.729-0.196c4.993-4.444,10.064-9.006,13.246-14.996c5.717-10.27,5.786-24.425-2.369-33.451
		c-7.764-9.006-23.035-9.759-31.717-1.693c-5.59,4.845-8.39,12.412-8.233,19.715c0.02,8.125,3.436,16.016,8.732,22.084
		c2.535,3.064,5.707,5.502,8.478,8.341c-7.9,0.362-15.8,0.137-23.699,0.127c-1.635-3.2-3.377-6.354-4.993-9.573
		c3.299-0.843,4.063,2.984,5.746,4.845c3.847-0.039,7.694-0.019,11.541-0.019C13.66,51.329,8.422,45.251,6.22,37.909
		C3.156,28.59,5.671,17.587,12.886,10.832z"/>
	<path fill="#009444" stroke="#010101" stroke-width="0.5" stroke-miterlimit="10" d="M224.929,10.861
		c8.584,16.397,16.698,33.049,25.235,49.475v0.244c-2.653,0-5.296-0.009-7.938-0.049c-1.597-3.211-3.231-6.411-4.787-9.632
		c-8.272,0.01-16.534,0.019-24.796-0.011c-1.674,3.202-3.279,6.432-4.885,9.673c-2.692,0.019-5.385,0.019-8.076,0.019
		C208.228,44.076,216.549,27.454,224.929,10.861 M216.05,43.948c5.951,0.235,11.913,0.079,17.874,0.108
		c-2.976-5.844-5.863-11.737-8.977-17.513C221.972,32.34,219.112,38.203,216.05,43.948z"/>
	<path fill="#009444" stroke="#010101" stroke-width="0.5" stroke-miterlimit="10" d="M69.643,60.463
		c5.462-15.829,9.711-32.079,15.408-47.819c4.63,10.563,9.231,21.144,13.558,31.824c4.689-10.729,9.417-21.448,13.764-32.324
		c5.325,16.064,10.209,32.266,15.301,48.408c-2.438,0.02-4.886,0.028-7.333,0.038c-3.103-9.445-5.765-19.029-8.957-28.447
		c-4.043,10.034-8.389,19.96-12.746,29.857c-4.15-9.955-8.379-19.892-12.765-29.739c-2.829,9.447-5.863,18.835-8.703,28.28
		C74.655,60.61,72.149,60.59,69.643,60.463z"/>
	<path fill="#009444" stroke="#010101" stroke-width="0.5" stroke-miterlimit="10" d="M176.658,13.387
		c9.701-2.838,20.409,1.527,26.342,9.486c-1.929,1.39-3.837,2.78-5.756,4.17c-4.365-6.579-13.382-9.437-20.704-6.422
		c-8.369,3.054-13.059,13.078-10.356,21.517c1.968,7.587,9.622,13.156,17.463,12.55c7.372-0.078,13.999-5.531,16.104-12.49
		c-5.501-0.04-10.993,0.028-16.494-0.05c0-2.281,0.02-4.571,0.01-6.853c8.037,0.01,16.073,0.03,24.12-0.01
		c0.244,7.137-2.232,14.458-7.528,19.383c-6.216,6.354-16.063,8.535-24.473,5.824c-10.17-3.172-17.454-13.509-16.975-24.159
		C158.597,25.76,166.389,15.933,176.658,13.387z"/>
	<path fill="#009444" stroke="#010101" stroke-width="0.5" stroke-miterlimit="10" d="M128.662,13.554
		c9.564,0.029,19.118,0.01,28.672,0.01c-0.028,2.28-0.01,4.572,0.01,6.853c-7.155,0.068-14.311,0.029-21.468,0.019
		c-0.019,4.405-0.028,8.81,0.029,13.215c6.931-0.009,13.872-0.039,20.802,0.02c-0.01,2.29-0.038,4.592-0.038,6.882
		c-6.94-0.078-13.871-0.029-20.802-0.039c-0.02,4.396,0.019,8.791-0.01,13.187c7.155-0.011,14.311-0.06,21.467,0.028
		c-0.019,2.271,0,4.543,0.02,6.824c-9.554,0.059-19.117,0.067-28.682-0.021C128.691,44.879,128.691,29.216,128.662,13.554z"/>
</g>
</svg>
